<svg id="Layer_1" data-name="Layer 1" xmlns="http://www.w3.org/2000/svg" viewBox="0 0 1600 1200"><defs><style>.cls-1{fill:#d94b3a;}</style></defs><title>SVG File</title><path class="cls-1" d="M790.31,430.5l0,.11v21.66a17.09,17.09,0,0,1-12.74,5.54,15.16,15.16,0,0,1-5.62-1,17.06,17.06,0,0,1-10-17.77,5.72,5.72,0,0,0-1-4.34,5.84,5.84,0,0,0-3.82-2.35,8.61,8.61,0,0,0-.92-.07,5.79,5.79,0,0,0-5.73,4.92c-1.94,12.41,5.62,25.77,17.22,30.44a26.63,26.63,0,0,0,9.92,1.87,29.4,29.4,0,0,0,12.77-2.9v43a25.05,25.05,0,0,0-18.58-8.48c-.73,0-1.46.08-2.12.11a25.21,25.21,0,0,0-21,16.78,5.84,5.84,0,0,0,3.7,7.38,5.25,5.25,0,0,0,1.84.29,5.83,5.83,0,0,0,5.54-4,13.24,13.24,0,0,1,11-8.81c.37,0,.7,0,1.06,0A12.89,12.89,0,0,1,782,533.55a5.88,5.88,0,0,0,1.07,8.19,5.68,5.68,0,0,0,3.56,1.21,5.62,5.62,0,0,0,3.63-1.29v3.86a27.16,27.16,0,0,0-14.1-4.19c-.62,0-1.24,0-1.91.08A26.84,26.84,0,0,0,753.6,555a27.76,27.76,0,0,0-8.82-2.61,26.65,26.65,0,0,0-3.48-.22,29.6,29.6,0,0,0-24.78,13.51,5.9,5.9,0,0,0,1.8,8.08,6,6,0,0,0,3.12.92,5.74,5.74,0,0,0,4.92-2.72,18.4,18.4,0,0,1,15-8.12,18.84,18.84,0,0,1,2,.15,17.57,17.57,0,0,1,9.81,30.18,5.69,5.69,0,0,0-1.8,4.07,5.78,5.78,0,0,0,1.57,4.23,6,6,0,0,0,4.23,1.83,5.81,5.81,0,0,0,4-1.61,29.09,29.09,0,0,0,1.91-40.46,15.34,15.34,0,0,1,12.19-9.18,7.87,7.87,0,0,1,1,0,16.92,16.92,0,0,1,14.06,8.74v42.59a31.12,31.12,0,0,0-3.71-.18A35.9,35.9,0,0,0,772.32,607a29.78,29.78,0,0,0-17.15,19.09c-2.53,9.33.52,19.53,7.6,25.41a5.9,5.9,0,0,0,3.71,1.32,5.85,5.85,0,0,0,3.71-10.35c-3.49-2.9-5.1-8.48-3.78-13.29a18.25,18.25,0,0,1,10.5-11.46,24.69,24.69,0,0,1,9.62-1.83,31.77,31.77,0,0,1,3.74.22v35.61l0,.18,0,.63c.26,5.61-3.41,11.6-9.1,14.9a28.41,28.41,0,0,1-14.36,3.49,41.7,41.7,0,0,1-5.91-.44c-9.21-1.29-17.14-5.18-22.32-11a24.05,24.05,0,0,1-6.24-16.81,21.55,21.55,0,0,0,7.75,1.43,20.15,20.15,0,0,0,11-3.2,5.82,5.82,0,0,0,1.76-8.07,5.73,5.73,0,0,0-4.88-2.68,5.87,5.87,0,0,0-3.16.92,8.5,8.5,0,0,1-4.73,1.32,9.14,9.14,0,0,1-6.32-2.39,9.43,9.43,0,0,1-1.5-11,6.07,6.07,0,0,0,.62-4.45,6,6,0,0,0-2.68-3.56,6.18,6.18,0,0,0-3-.8,5.84,5.84,0,0,0-5,2.86,21.05,21.05,0,0,0-1.73,17c-1,.08-1.94.11-2.94.11a38.11,38.11,0,0,1-25.84-10.35c-9.25-8.55-13.29-20.59-10.76-32.23A21,21,0,0,1,688.76,575,23.38,23.38,0,0,0,703,579.92a20.56,20.56,0,0,0,8.62-1.87,5.85,5.85,0,1,0-5-10.61,8.12,8.12,0,0,1-3.71.8,11.84,11.84,0,0,1-7.2-2.53c-3.23-2.53-5.54-6.86-6.31-11.86A20.92,20.92,0,0,1,691,541.41a14.59,14.59,0,0,1,8.33-7.57,10.7,10.7,0,0,1,3.38-.51,10.05,10.05,0,0,1,6.46,2.17,6.09,6.09,0,0,0,3.74,1.32,5.84,5.84,0,0,0,3.71-10.35,21.75,21.75,0,0,0-13.91-4.85,23.44,23.44,0,0,0-6.94,1.06,25.7,25.7,0,0,0-12.63,9.26,37.77,37.77,0,0,1-12.85-28.16c-.25-12.89,5.55-24.75,15.57-31.72,2.13-1.51,9.73-6.43,17.22-6.43a14.28,14.28,0,0,1,3.12.33,31.28,31.28,0,0,0,10.42,13.59,28.76,28.76,0,0,0-4.33,10.83,29.66,29.66,0,0,0,9,26.17,5.84,5.84,0,0,0,9.76-4.59,5.91,5.91,0,0,0-1.9-4A17.19,17.19,0,0,1,734,479.44a16.36,16.36,0,0,1,6.61-1.32,17.27,17.27,0,0,1,9.69,2.9,5.84,5.84,0,0,0,6.57-9.66,29.13,29.13,0,0,0-16.3-5,27.31,27.31,0,0,0-15.6,4.67c-4.89-2.76-8.48-8.3-9.33-14.62s.88-13.76,5-20.52c7.46-12.19,17.37-20.7,27.28-23.38a55.81,55.81,0,0,1,14.54-2c8.15,0,15.24,2,20.52,5.72C786.78,418.9,790.31,426.57,790.31,430.5Z"/><path class="cls-1" d="M843.54,332H756.46C633,332,532,433,532,556.46v87.08C532,767,633,868,756.46,868h87.08C967,868,1068,767,1068,643.54V556.46C1068,433,967,332,843.54,332ZM812.89,527.42h56l-13.47,9.69c-20.19,14.5-25.81,93.14-26.25,122.22l-10.68-.15a564.87,564.87,0,0,1,4.22-56.61c3.89-30.21,9.87-51.8,17.84-64.47H812.89Zm-83,139.87a35.41,35.41,0,0,1-9.14-25.47c-1.07.07-2.09.11-3.16.11a49.63,49.63,0,0,1-33.77-13.48c-12.34-11.38-17.7-27.57-14.29-43.28A32.44,32.44,0,0,1,681.31,566a33.42,33.42,0,0,1-3.38-10.31,35.34,35.34,0,0,1,.33-12.74c-12-8.85-19.31-23.35-19.6-39-.33-16.78,7.38-32.31,20.56-41.56,3.67-2.53,13.32-8.48,23.93-8.48h.63a45.64,45.64,0,0,1,6.94-24.12c8.95-14.72,21.44-25.15,34.17-28.6a67.77,67.77,0,0,1,17.55-2.39c10.58,0,20,2.72,27.28,7.82,7,5,12.63,16.27,12.23,24.67v22.1a6,6,0,0,1,0,1.58V653.67l0,.08c-.22,9.51-5.95,18.61-14.91,23.82a39.94,39.94,0,0,1-20.22,5,51.59,51.59,0,0,1-7.46-.51C747.35,680.44,736.89,675.15,729.88,667.29Zm141.67,80.26H769.68v42.91h73.9V762.31h10.68v38.84H759v-53.6H733V703.68h10.68v33.18H871.55Zm0-38.55H769.35V698.32h102.2Zm24.05-71.41c-9.11,14.76-17.7,28.68-24.27,42l-1.47,3h-53.6V671.92h47c6.57-12.85,14.68-26.07,23.27-39.94,26.73-43.32,54.34-88.11,40.53-132-10.9-34.59-46.47-64.47-108.7-91.34l4.26-9.81C887.82,427,925.34,459,937.23,496.8,952.5,545.3,922.25,594.35,895.6,637.59Z"/></svg>